<?xml version="1.0" encoding="UTF-8" standalone="no"?>
<!-- Created with Inkscape (http://www.inkscape.org/) -->

<svg
   width="160"
   height="90"
   viewBox="0 0 42.333333 23.8125"
   version="1.1"
   id="svg1"
   xml:space="preserve"
   sodipodi:docname="EasyCV full.svg"
   inkscape:version="1.4.2 (f4327f4, 2025-05-13)"
   xmlns:inkscape="http://www.inkscape.org/namespaces/inkscape"
   xmlns:sodipodi="http://sodipodi.sourceforge.net/DTD/sodipodi-0.dtd"
   xmlns="http://www.w3.org/2000/svg"
   xmlns:svg="http://www.w3.org/2000/svg"><sodipodi:namedview
     id="namedview1"
     pagecolor="#343a40"
     bordercolor="#eeeeee"
     borderopacity="1"
     inkscape:showpageshadow="0"
     inkscape:pageopacity="0"
     inkscape:pagecheckerboard="0"
     inkscape:deskcolor="#505050"
     inkscape:document-units="px"
     inkscape:zoom="9.56875"
     inkscape:cx="80.052253"
     inkscape:cy="44.990202"
     inkscape:window-width="2560"
     inkscape:window-height="1369"
     inkscape:window-x="-8"
     inkscape:window-y="-8"
     inkscape:window-maximized="1"
     inkscape:current-layer="layer2" /><defs
     id="defs1" /><g
     inkscape:groupmode="layer"
     id="layer2"
     inkscape:label="Pencil"><path
       id="path33"
       style="fill:none;stroke:#adb5bd;stroke-width:1.32292;stroke-linecap:round;stroke-linejoin:round;stroke-dasharray:none;stroke-opacity:1"
       d="m 5.5549247,12.312601 c 1.0719963,0.04918 2.142351,0.163989 3.2167452,0.13497 M 9.3636315,9.0419444 c -0.4542053,-0.03891 -0.9232643,-0.02003 -1.3790392,-0.02392 -0.4557749,-0.0039 -1.42368,0.05634 -2.1343691,0.07147 -0.2316037,-0.0231 -0.2224497,-0.0073 -0.2588573,0.09778 -0.011765,0.75416 -0.052872,1.7932446 -0.077411,2.4806386 -0.024539,0.687394 -0.01167,1.283561 0.00962,1.860979 0.02129,0.577418 0.015706,1.068037 0.070864,1.59989 0.016074,0.647636 -0.087778,0.59064 0.2696447,0.586522 0.521159,-0.01434 1.0627755,0.0099 1.5626995,-0.0078 0.499924,-0.01771 1.1209296,-0.04849 1.4348437,-0.04411"
       inkscape:label="E"
       sodipodi:nodetypes="cczzcczzcczc" /><path
       style="fill:none;stroke:#adb5bd;stroke-width:1.32292;stroke-linecap:round;stroke-linejoin:round;stroke-dasharray:none;stroke-opacity:1"
       d="m 13.270614,12.02017 c -0.917066,-0.469353 -2.302155,0.02965 -2.581132,1.091481 -0.352985,0.843348 -0.1612,2.80693 1.093114,2.482569 1.277346,-0.25428 1.341758,-1.697719 1.431792,-2.719252 0.02287,-0.736267 0.0984,-0.873212 0.119353,-0.02141 0.0419,0.945345 -0.09335,2.251595 0.377337,2.908892 0.154931,0.0031 0.335375,-0.160291 0.369338,-0.30058"
       id="path34"
       inkscape:label="a"
       sodipodi:nodetypes="ccccccc" /><path
       style="fill:none;stroke:#adb5bd;stroke-width:1.32292;stroke-linecap:round;stroke-linejoin:round;stroke-dasharray:none;stroke-opacity:1"
       d="m 17.859537,11.705244 c -0.614018,-0.272375 -1.515265,0.254837 -1.759351,0.521169 -0.244086,0.266332 -0.188338,0.702513 0.0797,0.922606 0.268038,0.220093 0.441474,3.82e-4 0.932017,0.10436 0.490543,0.103978 1.017768,0.358008 1.223057,0.850397 0.205289,0.492389 -0.19851,0.993823 -0.641988,1.171069 -0.443478,0.177246 -1.180707,0.276597 -1.812967,0.09703"
       id="path35"
       inkscape:label="s"
       sodipodi:nodetypes="zzzzzzz" /><path
       style="fill:none;stroke:#adb5bd;stroke-width:1.32292;stroke-linecap:round;stroke-linejoin:round;stroke-dasharray:none;stroke-opacity:1"
       d="m 20.485796,11.469049 c -0.468994,1.149739 -0.326034,2.355304 -0.241287,3.606422 0.06675,0.474875 0.628528,0.692914 1.158393,0.745801 0.684352,-0.107143 1.342765,-0.47653 1.680607,-1.079752 0.487363,-0.989441 0.442227,-2.126237 0.406356,-3.199224 -0.03953,-0.211963 -0.07545,0.206569 -0.08286,0.319494 0.0041,0.925293 3.08e-4,1.828545 0.04847,2.764846 0.05718,1.221297 0.25589,2.4782 0.03397,3.639587 -0.398901,0.664483 -1.232052,0.897871 -1.947644,0.92776 -0.492004,-0.03923 -0.756259,0.0414 -1.185344,-0.257501"
       id="path36"
       inkscape:label="y"
       sodipodi:nodetypes="zccccccccc" /><path
       d="M 36.832723,8.4437705 32.04025,3.6512982 H 25.189506 V 20.479729 h 11.643217 z"
       style="fill:#dcdcdc;fill-opacity:1;fill-rule:nonzero;stroke:#000000;stroke-width:1.32292;stroke-linecap:round;stroke-linejoin:round;stroke-dasharray:none"
       id="path44"
       inkscape:label="Page" /><path
       d="m 32.040343,3.6512044 v 4.7924731 h 4.792473 z"
       style="display:inline;fill:#dcdcdc;fill-opacity:1;fill-rule:nonzero;stroke:#000000;stroke-width:1.32292;stroke-linecap:round;stroke-linejoin:round;stroke-dasharray:none"
       id="path45"
       sodipodi:nodetypes="cc"
       inkscape:label="Page corner" /><path
       style="fill:none;stroke:#000000;stroke-width:1.32292;stroke-linecap:round;stroke-linejoin:round;stroke-dasharray:none;stroke-opacity:1"
       d="m 30.342904,11.413402 c -0.218469,-0.08408 -1.331454,-0.01385 -2.058136,0.303149 -0.726682,0.316999 -1.053026,1.440654 -0.95069,2.592061 0.102336,1.151407 1.35911,1.711677 2.362034,1.526569 0.205632,-0.06196 0.666655,-0.05619 0.670646,-0.349811"
       id="path37"
       inkscape:label="C"
       sodipodi:nodetypes="zzzcc" /><path
       style="fill:none;stroke:#000000;stroke-width:1.32292;stroke-linecap:round;stroke-linejoin:round;stroke-dasharray:none;stroke-opacity:1"
       d="m 31.911205,11.291299 c -0.181257,0.464515 0.111492,0.948952 0.180704,1.407382 0.06921,0.45843 0.580633,2.289719 0.920287,3.417802 0.409575,-1.302691 0.963027,-3.111555 1.451953,-3.817365 0.488926,-0.70581 0.370275,-0.613061 0.518244,-0.943487"
       id="path38"
       inkscape:label="V"
       sodipodi:nodetypes="czczc" /></g></svg>
